<svg width="420" height="240" viewBox="0 0 420 240" fill="none" xmlns="http://www.w3.org/2000/svg">
<path d="M419.5 239.84C419.5 239.926 325.696 240 210.009 240C94.3229 240 0.5 239.926 0.5 239.84C0.5 239.754 94.2859 239.68 210.009 239.68C325.732 239.68 419.5 239.754 419.5 239.84Z" fill="#263238"/>
<path d="M33.2061 169.469C33.3722 168.952 52.5466 106.295 52.5466 106.295L52.0666 98.5134L57.0818 90.2583L63.3091 92.319L62.4599 101.546L58.0294 108.276L38.7442 171.271L33.2061 169.469Z" fill="#E0E0E0"/>
<path d="M33.2061 169.469L33.5753 169.573L34.6398 169.906L38.7442 171.191L38.6765 171.228C41.7964 161.011 49.0083 137.365 57.894 108.251L62.3184 101.528V101.595C62.5892 98.6487 62.8784 95.5177 63.1676 92.3682L63.2783 92.5343L62.7615 92.3682L57.051 90.4797L57.2356 90.4121L52.2205 98.6671V98.5749C52.3805 101.228 52.5384 103.822 52.6943 106.356V106.412C47.0884 124.613 42.2333 140.379 38.7812 151.599C37.0459 157.215 35.6552 161.687 34.7014 164.769C34.2275 166.307 33.8522 167.494 33.5999 168.306L33.3107 169.223L33.2061 169.537C33.2269 169.435 33.2536 169.334 33.286 169.235C33.3476 169.02 33.4337 168.718 33.5507 168.331C33.7968 167.519 34.166 166.338 34.6091 164.812C35.5382 161.737 36.892 157.259 38.5904 151.649C42.0241 140.392 46.8361 124.583 52.3989 106.319V106.375C52.2389 103.84 52.0769 101.247 51.9128 98.5933V98.5441V98.5011L56.9279 90.246L56.9894 90.1353L57.1125 90.1783L62.8291 92.0606L63.3399 92.2328L63.463 92.2698V92.3989C63.1737 95.5669 62.8845 98.6979 62.6076 101.626V101.669V101.7L58.1832 108.429V108.386C49.2052 137.439 41.9318 161.054 38.7812 171.271V171.327H38.7258L34.6152 169.967L33.5753 169.617L33.2061 169.469Z" fill="#263238"/>
<path d="M28.5849 172.502L19.97 184.14L7.9275 227.814C7.9275 227.814 6.19835 236.721 16.0378 239.25C27.1142 242.092 29.6371 233.627 29.6371 233.627L41.3289 190.98L41.2058 176.192L44.0918 172.938C44.2223 172.787 44.3138 172.605 44.3585 172.41C44.4031 172.215 44.3995 172.013 44.348 171.819C44.2965 171.626 44.1986 171.448 44.0628 171.301C43.927 171.154 43.7574 171.043 43.5687 170.976L29.7356 166.412C29.5433 166.352 29.3393 166.34 29.1413 166.377C28.9433 166.414 28.7575 166.499 28.6002 166.625C28.4428 166.751 28.3188 166.913 28.2388 167.098C28.1589 167.283 28.1256 167.484 28.1418 167.685L28.5849 172.502Z" fill="#C53F3F"/>
<path d="M41.2795 176.703C41.2487 176.789 38.3504 175.946 34.806 174.821C31.2615 173.695 28.4001 172.711 28.4309 172.625C28.4617 172.539 31.3538 173.387 34.9044 174.513C38.455 175.639 41.3041 176.617 41.2795 176.703Z" fill="#263238"/>
<path d="M41.3537 190.986C41.0621 190.968 40.7733 190.918 40.4922 190.839C39.9384 190.722 39.1507 190.531 38.1723 190.285C36.2155 189.799 33.5326 189.055 30.6096 188.12C27.6867 187.185 25.0715 186.238 23.1823 185.506C22.247 185.136 21.4901 184.829 20.9732 184.607C20.6988 184.509 20.435 184.383 20.1855 184.232C20.4723 184.291 20.7526 184.377 21.0224 184.491L23.2623 185.29C25.1576 185.967 27.779 186.883 30.7019 187.812C33.6249 188.741 36.2955 189.522 38.2277 190.07L40.523 190.716C40.8076 190.78 41.0856 190.871 41.3537 190.986Z" fill="#263238"/>
<g opacity="0.3">
<path d="M25.1569 188.77L24.8556 188.682C23.779 188.368 22.6518 188.986 22.3379 190.063L11.6778 226.611C11.3639 227.688 11.9822 228.815 13.0588 229.129L13.36 229.217C14.4367 229.531 15.5639 228.913 15.8778 227.836L26.5379 191.288C26.8518 190.211 26.2335 189.084 25.1569 188.77Z" fill="black"/>
</g>
<g opacity="0.3">
<path d="M31.3298 190.771L31.0285 190.684C29.9519 190.37 28.8246 190.987 28.5107 192.064L17.8506 228.613C17.5367 229.689 18.155 230.816 19.2316 231.13L19.5329 231.218C20.6095 231.532 21.7368 230.914 22.0507 229.838L32.7107 193.289C33.0247 192.212 32.4064 191.085 31.3298 190.771Z" fill="black"/>
</g>
<g opacity="0.3">
<path d="M36.8994 192.613L36.5985 192.524C35.5231 192.205 34.3934 192.819 34.0752 193.894L23.2686 230.4C22.9504 231.475 23.5641 232.604 24.6395 232.922L24.9404 233.011C26.0157 233.33 27.1454 232.716 27.4637 231.641L38.2702 195.136C38.5885 194.061 37.9747 192.931 36.8994 192.613Z" fill="black"/>
</g>
<path d="M57.9856 108.282C57.0446 108.125 56.1241 107.863 55.2411 107.501C54.3243 107.243 53.4405 106.88 52.6074 106.418C53.5455 106.58 54.4636 106.842 55.3457 107.199C56.2642 107.458 57.15 107.822 57.9856 108.282Z" fill="#263238"/>
<path d="M63.3212 92.3192C63.2751 92.6121 63.203 92.9003 63.1058 93.1804C62.9273 93.7955 62.6935 94.5706 62.4043 95.5302L59.9429 103.527L59.8936 103.681L59.7398 103.631L56.903 102.641L53.9863 101.62L53.8447 101.571L53.8878 101.429C54.7739 98.2675 55.5554 95.4933 56.1338 93.4326C56.4169 92.4791 56.6446 91.6918 56.823 91.1012C56.8953 90.8154 56.99 90.5357 57.1061 90.2646C57.0724 90.5585 57.0127 90.8487 56.9276 91.132L56.3123 93.4879C55.7646 95.5363 55.0262 98.3167 54.177 101.485L54.0786 101.294L57.0015 102.315L59.8321 103.305L59.629 103.41L62.2135 95.4687C62.5335 94.5152 62.8289 93.7402 63.0012 93.1496C63.0842 92.8643 63.1913 92.5865 63.3212 92.3192Z" fill="#263238"/>
<path d="M376.168 68.212C380.334 63.1925 384.5 58.1238 387.749 52.4646C390.998 46.8054 393.287 40.4818 393.453 33.9614C393.453 32.971 393.053 26.1123 392.099 25.8355C391.423 25.6387 390.955 31.6977 390.401 32.1345C385.084 36.2928 381.632 42.4625 379.645 48.9091C377.774 55.1948 376.608 61.6688 376.168 68.212Z" fill="#263238"/>
<path d="M321.899 106.363C323.561 102.057 331.745 80.5269 331.702 80.5269C331.659 80.5269 317.604 73.1946 322.472 58.2591C324.81 51.0436 330.834 36.5819 336.434 23.5533C339.341 16.8033 344.683 11.3943 351.397 8.40232C358.112 5.41036 365.707 5.05471 372.672 7.40611L374.106 7.89206C389.281 14.0434 392.567 30.326 386.001 45.3167L355.849 115.134L329.425 106.972L321.899 106.363Z" fill="#FFBF9D"/>
<path d="M331.708 80.5391C331.708 80.5391 340.895 84.2299 353.005 81.351C353.005 81.351 344.624 90.8179 330.237 84.4698L331.708 80.5391Z" fill="#FF9A6C"/>
<path d="M336.41 37.9288C336.218 38.4807 336.249 39.0855 336.496 39.615C336.743 40.1445 337.186 40.5569 337.733 40.7646C337.996 40.8769 338.279 40.9355 338.565 40.9371C338.851 40.9387 339.134 40.8831 339.398 40.7737C339.663 40.6642 339.902 40.5031 340.103 40.2998C340.305 40.0965 340.463 39.855 340.569 39.5897C340.763 39.0379 340.733 38.4323 340.486 37.9024C340.238 37.3725 339.794 36.9603 339.246 36.7539C338.984 36.6407 338.701 36.5814 338.414 36.5794C338.128 36.5774 337.844 36.6328 337.58 36.7424C337.315 36.8519 337.076 37.0133 336.875 37.2171C336.674 37.4209 336.515 37.6629 336.41 37.9288Z" fill="#263238"/>
<path d="M337.505 30.8121C337.677 31.1812 339.689 30.5291 341.972 31.3104C344.255 32.0916 345.548 33.7709 345.886 33.5987C346.052 33.5187 345.954 32.9282 345.4 32.1469C344.644 31.1281 343.591 30.3692 342.385 29.9755C341.191 29.5634 339.897 29.5462 338.693 29.9263C337.806 30.2277 337.419 30.646 337.505 30.8121Z" fill="#263238"/>
<path d="M356.464 45.9936C356.27 46.5445 356.301 47.1492 356.548 47.6781C356.795 48.207 357.24 48.6181 357.787 48.8232C358.05 48.9364 358.333 48.9957 358.619 48.9977C358.905 48.9997 359.189 48.9443 359.453 48.8347C359.718 48.7252 359.958 48.5638 360.159 48.36C360.36 48.1562 360.518 47.9142 360.624 47.6483C360.815 47.0965 360.785 46.4916 360.538 45.9621C360.291 45.4326 359.847 45.0202 359.301 44.8125C359.037 44.7004 358.754 44.642 358.468 44.6409C358.181 44.6397 357.898 44.6958 357.633 44.8059C357.369 44.9159 357.129 45.0777 356.929 45.2817C356.728 45.4856 356.57 45.7277 356.464 45.9936Z" fill="#263238"/>
<path d="M359.589 39.2945C359.756 39.6636 361.774 39.0177 364.057 39.7928C366.34 40.5679 367.626 42.2533 367.971 42.0872C368.131 42.0011 368.038 41.4106 367.484 40.6355C366.727 39.6151 365.671 38.8544 364.463 38.458C363.27 38.0446 361.975 38.0273 360.771 38.4087C359.909 38.7102 359.503 39.1285 359.589 39.2945Z" fill="#263238"/>
<path d="M345.455 54.0884C345.511 53.9654 344.169 53.2396 341.966 52.1692C341.406 51.9109 340.889 51.6094 340.926 51.1727C340.963 50.736 341.388 50.1577 341.899 49.5795L345.129 45.7165C349.664 40.1803 353.16 35.5852 352.932 35.4007C352.704 35.2162 348.852 39.5467 344.317 45.0644C343.215 46.43 342.157 47.728 341.154 48.9767C340.711 49.5918 340.077 50.207 340.077 51.1666C340.093 51.4002 340.162 51.6272 340.278 51.8307C340.394 52.0341 340.555 52.2087 340.748 52.3415C341.043 52.5371 341.362 52.6962 341.696 52.8151C343.96 53.7194 345.4 54.2176 345.455 54.0884Z" fill="#263238"/>
<path d="M351.652 57.9392C351.283 57.7977 350.421 60.2767 347.726 61.3162C345.031 62.3558 342.452 61.1994 342.317 61.5377C342.231 61.6792 342.748 62.2143 343.849 62.6265C345.297 63.1346 346.878 63.1194 348.317 62.5834C349.695 62.0632 350.817 61.029 351.449 59.6984C351.892 58.7019 351.824 57.9822 351.652 57.9392Z" fill="#263238"/>
<path d="M362.845 30.0676C362.845 30.7627 365.245 31.2425 367.817 32.4666C370.389 33.6907 372.315 35.1609 372.857 34.7241C373.103 34.5088 372.924 33.7953 372.241 32.8787C371.325 31.7457 370.161 30.8369 368.84 30.2218C367.519 29.6067 366.074 29.3014 364.617 29.3294C363.509 29.4155 362.851 29.7415 362.845 30.0676Z" fill="#263238"/>
<path d="M341.018 23.5348C341.246 24.193 342.999 24.1499 344.901 24.7651C346.802 25.3802 348.285 26.2968 348.833 25.8785C349.085 25.6693 349.011 25.0665 348.476 24.3345C347.733 23.4283 346.737 22.7629 345.616 22.4224C344.494 22.0819 343.297 22.0815 342.175 22.4214C341.326 22.7597 340.926 23.2211 341.018 23.5348Z" fill="#263238"/>
<path d="M381.041 55.9338C381.337 55.9338 392.284 56.3583 388.53 66.3911C384.776 76.4239 375.442 70.6048 375.534 70.3095C375.626 70.0142 381.041 55.9338 381.041 55.9338Z" fill="#FFBF9D"/>
<path d="M380.032 67.6707C380.087 67.6707 380.161 67.8614 380.407 68.1075C380.755 68.4431 381.222 68.6287 381.705 68.6242C382.936 68.6242 384.438 67.277 385.164 65.4808C385.514 64.6278 385.667 63.707 385.613 62.7866C385.639 62.4354 385.578 62.0833 385.435 61.7614C385.292 61.4395 385.072 61.1578 384.794 60.9412C384.612 60.8071 384.388 60.7426 384.162 60.7596C383.936 60.7765 383.724 60.8736 383.564 61.0334C383.324 61.2672 383.311 61.4886 383.256 61.4886C383.201 61.4886 383.102 61.2364 383.336 60.8735C383.483 60.6488 383.699 60.4781 383.951 60.3876C384.306 60.2825 384.688 60.32 385.016 60.4921C385.395 60.7312 385.707 61.0628 385.922 61.4555C386.137 61.8483 386.249 62.2895 386.247 62.7374C386.346 63.7692 386.194 64.8097 385.804 65.77C384.979 67.7691 383.238 69.2824 381.625 69.1593C381.326 69.1354 381.035 69.0452 380.774 68.8952C380.513 68.7452 380.289 68.5392 380.118 68.292C379.958 67.9291 379.989 67.6769 380.032 67.6707Z" fill="#FF9A6C"/>
<path d="M349.277 9.4484C347.997 7.93517 354.883 4.52734 359.566 4.26898C366.642 3.85069 376.494 5.69609 381.441 9.40534C387.41 13.8651 391.687 19.3274 392.709 26.7029C393.73 34.0783 392.272 41.6568 389.41 48.5339C388.536 50.6315 387.466 52.7537 385.644 54.1132C383.398 55.7925 380.174 56.1554 379.115 59.2619C378.94 59.8292 378.654 60.3562 378.274 60.8123C377.894 61.2685 377.427 61.6447 376.9 61.9192C374.316 63.1495 372.777 60.4737 372.451 58.2284C371.756 53.455 373.306 48.6754 374.839 44.0804C375.928 40.8325 377.054 37.5169 379.146 34.7919C380.278 33.3094 381.669 32.0361 382.721 30.4859C383.774 28.9358 384.457 26.9981 383.952 25.2081C383.824 24.8134 383.657 24.4322 383.454 24.0701C382.524 22.3148 381.143 20.8383 379.454 19.792C377.765 18.7456 375.828 18.1671 373.842 18.1156C367.424 17.9495 356.612 17.2298 354.858 14.351C352.292 10.205 352.114 8.07665 352.114 8.07665L349.277 9.4484Z" fill="#263238"/>
<path d="M382.727 3.26621C383.373 3.59223 398.493 12.9299 398.394 26.549C398.296 40.168 395.804 43.502 395.804 43.502C396.311 44.1263 396.725 44.8204 397.034 45.5627C397.44 46.5962 395.12 50.1024 393.133 48.9337C379.558 36.3419 360.851 29.1079 339.511 22.483L323.413 16.7192C318.7 15.6919 317.524 13.9388 319.826 13.4651C321.592 13.096 336.213 12.3579 336.213 12.3579L339.369 11.386L349.215 4.42881C349.215 4.42881 348.834 2.85407 350.834 2.34351C352.833 1.83295 370.014 -3.19269 382.727 3.26621Z" fill="#C53F3F"/>
<path d="M339.357 11.4106C339.357 11.4106 339.573 11.4968 339.973 11.6321L341.819 12.2103C343.406 12.684 345.665 13.4836 348.446 14.5048C355.643 17.2735 362.584 20.6655 369.19 24.6421C375.792 28.6354 382.161 33.0017 388.266 37.7199C390.629 39.5099 392.505 40.9985 393.804 42.0258L395.311 43.2007C395.656 43.4652 395.847 43.5944 395.847 43.5944C395.847 43.5944 395.681 43.4345 395.342 43.1515L393.872 41.9212C392.585 40.8755 390.721 39.3623 388.376 37.5538C382.293 32.7801 375.922 28.3839 369.3 24.3899C362.674 20.3986 355.696 17.0237 348.452 14.3079C345.471 13.1906 342.436 12.2236 339.357 11.4106Z" fill="#263238"/>
<g opacity="0.3">
<path d="M395.244 15.6426C395.244 15.6426 378.555 6.71088 369.337 7.79352L370.42 7.64589L361.805 8.35944C360.347 8.48247 358.679 8.52552 357.683 7.46134C357.683 7.46134 362.907 5.24687 371.159 5.28993C379.411 5.33299 391.521 8.26102 395.244 15.6426Z" fill="black"/>
</g>
<path d="M395.465 15.7901C395.095 15.2332 394.683 14.7048 394.234 14.2092C393.032 12.8371 391.673 11.6108 390.185 10.5553C387.982 8.97775 385.558 7.73407 382.992 6.86449C379.864 5.713 376.525 5.24931 373.202 5.50505C371.496 5.67692 369.802 5.95633 368.131 6.34163C366.519 6.70456 364.95 6.95676 363.467 7.38736C362.107 7.83828 360.711 8.17167 359.295 8.38387C358.055 8.50636 356.804 8.34003 355.64 7.89792C351.277 6.46466 348.92 4.65002 349.215 4.44702C349.231 4.62375 349.312 4.78824 349.443 4.90837C349.797 5.25459 350.194 5.55431 350.624 5.80031C352.191 6.73741 353.853 7.50257 355.584 8.08245C356.774 8.54246 358.054 8.72344 359.325 8.61147C360.758 8.41135 362.17 8.08824 363.547 7.64571C364.999 7.24587 366.587 6.97522 368.199 6.61229C369.859 6.24271 371.54 5.97158 373.232 5.80031C376.516 5.55328 379.815 6.00401 382.912 7.12285C385.459 7.97474 387.871 9.18653 390.075 10.7214C391.561 11.7555 392.929 12.9499 394.154 14.283C394.591 14.7566 394.918 15.138 395.127 15.4025C395.336 15.667 395.465 15.7901 395.465 15.7901Z" fill="#263238"/>
<g opacity="0.3">
<path d="M398.198 32.1774C395.035 31.064 392.918 29.4216 390.007 27.6501C386.93 25.7678 383.786 24.0454 380.777 22.0154C378.494 20.4776 375.731 18.8537 374.716 16.4792C374.379 17.0553 374.197 17.7086 374.187 18.3758C374.177 19.043 374.34 19.7013 374.66 20.2869C375.306 21.5172 378.045 23.7132 379.214 24.5067C385.866 29.028 390.487 32.1159 397.921 35.2593C398.079 34.2412 398.169 33.2137 398.191 32.1836" fill="black"/>
</g>
<path d="M398.357 25.0421C400.068 26.5984 401.096 27.6072 400.566 29.348C400.129 30.7874 399.243 32.4237 397.754 32.1961C397.314 32.0938 396.896 31.9102 396.523 31.6548L376.143 19.7274C375.405 19.4043 374.807 18.8283 374.457 18.1034C374.051 16.947 375.072 15.6798 376.248 15.3599C377.423 15.04 378.678 15.3599 379.847 15.7659C386.481 17.9127 392.53 21.2098 398.357 25.0359" fill="#C53F3F"/>
<path d="M374.678 18.5462C374.49 18.1906 374.401 17.7914 374.419 17.3897C374.465 16.8477 374.662 16.3295 374.989 15.8944C375.315 15.4593 375.757 15.1248 376.265 14.9292C377.57 14.4863 379.299 14.7816 380.997 15.4705C382.696 16.1595 384.609 16.9407 386.535 17.8326C389.881 19.3159 393.087 21.0945 396.117 23.1474C397.273 23.9409 398.166 24.6422 398.787 25.1281L399.489 25.7002C399.568 25.7707 399.655 25.8326 399.747 25.8847C399.747 25.8847 399.679 25.7986 399.526 25.6571L398.855 25.042C398.239 24.5314 397.384 23.8117 396.233 22.9813C393.224 20.8705 390.015 19.0595 386.652 17.5743C384.696 16.6762 382.806 15.9011 381.071 15.2183C379.336 14.5355 377.557 14.2403 376.148 14.7385C375.614 14.9515 375.153 15.3135 374.819 15.7814C374.485 16.2493 374.293 16.8034 374.265 17.3774C374.257 17.6857 374.323 17.9914 374.456 18.2694C374.513 18.3739 374.588 18.4675 374.678 18.5462Z" fill="#263238"/>
<path d="M346.126 6.63721L359.977 11.0723L357.485 14.5478L342.637 9.09774L346.126 6.63721Z" fill="white"/>
<path d="M362.741 25.983C362.772 25.9092 356.944 22.9073 349.714 19.3273C342.484 15.7472 336.576 12.8499 336.576 12.9237C336.576 12.9976 342.373 15.9994 349.603 19.5795C356.834 23.1596 362.704 26.0507 362.741 25.983Z" fill="#263238"/>
<path d="M366.229 100.611L366.414 91.5194L335.289 103.078C335.289 103.078 329.536 84.3962 329.536 83.5165L322.638 87.8225L311.174 82.9014L299.71 77.2422L276.523 117.841L252.198 189.529L309.5 227.741L351.996 182.221L377.841 142.852L392.043 117.927L366.229 100.611Z" fill="#C53F3F"/>
<path d="M332.521 102.942C332.484 102.64 332.47 102.336 332.478 102.032C332.478 101.417 332.478 100.543 332.441 99.4852L332.582 99.5714C329.162 101.241 326.005 103.403 323.211 105.987L322.964 106.221V105.883C322.964 105.477 322.915 105.046 322.891 104.609C322.638 100.15 322.429 96.1143 322.275 93.1863C322.214 91.7592 322.165 90.5904 322.128 89.7231C322.128 89.3458 322.128 89.0321 322.128 88.7819C322.087 88.7743 322.051 88.7517 322.026 88.7187C322.001 88.6856 321.989 88.6445 321.993 88.6033C321.997 88.5621 322.016 88.5238 322.046 88.4959C322.077 88.4681 322.117 88.4526 322.158 88.4526C322.2 88.4526 322.24 88.4681 322.27 88.4959C322.301 88.5238 322.32 88.5621 322.324 88.6033C322.328 88.6445 322.316 88.6856 322.291 88.7187C322.266 88.7517 322.23 88.7743 322.189 88.7819C322.189 89.028 322.238 89.3417 322.275 89.7169C322.337 90.5843 322.417 91.753 322.515 93.174C322.712 96.0959 322.952 100.131 323.204 104.591C323.204 105.028 323.254 105.458 323.272 105.864L323.008 105.753C325.823 103.151 329.029 101.005 332.509 99.393L332.656 99.3315V99.4852C332.656 100.543 332.613 101.398 332.601 102.032C332.597 102.337 332.57 102.641 332.521 102.942Z" fill="#263238"/>
<path d="M363.362 101.048C363.251 101.125 363.131 101.189 363.005 101.239L361.965 101.737L358.113 103.502L345.338 109.211L339.271 111.893L339.013 112.003L339.062 111.727C339.563 108.843 339.797 105.919 339.763 102.992L339.905 103.078L337.031 104.474L336.262 104.831C336.09 104.911 335.997 104.948 335.991 104.935C336.067 104.874 336.149 104.822 336.237 104.782L336.982 104.376L339.819 102.899L339.954 102.826V102.992C340.041 105.943 339.835 108.896 339.339 111.807L339.13 111.64L345.191 108.946L358.002 103.318L361.904 101.645L362.968 101.208C363.093 101.139 363.225 101.085 363.362 101.048Z" fill="#263238"/>
<path d="M308.946 55.5527H74.5585C69.6068 55.5527 65.5928 59.5654 65.5928 64.5152V226.75C65.5928 231.7 69.6068 235.713 74.5585 235.713H308.946C313.898 235.713 317.912 231.7 317.912 226.75V64.5152C317.912 59.5654 313.898 55.5527 308.946 55.5527Z" fill="#455A64"/>
<path d="M55.7285 224.074H329.099V228.891C329.099 231.795 327.945 234.58 325.891 236.633C323.837 238.687 321.051 239.84 318.146 239.84H66.6818C63.7768 239.84 60.9908 238.687 58.9367 236.633C56.8825 234.58 55.7285 231.795 55.7285 228.891V224.074Z" fill="#455A64"/>
<path d="M310.436 62.7126H72.3682V214.853H310.436V62.7126Z" fill="#263238"/>
<path d="M166.88 222.389L170.27 228.214H218.003L221.154 222.389H166.88Z" fill="#263238"/>
<path d="M304.005 67.8616H79.2778C78.1665 67.8616 77.2656 68.7621 77.2656 69.8731V212.35C77.2656 213.461 78.1665 214.362 79.2778 214.362H304.005C305.116 214.362 306.017 213.461 306.017 212.35V69.8731C306.017 68.7621 305.116 67.8616 304.005 67.8616Z" fill="#EBEBEB"/>
<path d="M305.778 214.577H77.0264L77.2664 78.8105H305.778V214.577Z" fill="#FAFAFA"/>
<path d="M96.4893 73.5205C96.4712 73.8883 96.3456 74.2427 96.1281 74.5399C95.9105 74.8371 95.6105 75.0639 95.2652 75.1923C94.92 75.3208 94.5446 75.3451 94.1856 75.2624C93.8266 75.1797 93.4998 74.9935 93.2456 74.727C92.9914 74.4604 92.8211 74.1252 92.7556 73.7628C92.6901 73.4004 92.7324 73.0268 92.8772 72.6882C93.0221 72.3496 93.2631 72.0609 93.5704 71.8578C93.8777 71.6548 94.2379 71.5463 94.6063 71.5459C95.1177 71.5588 95.6031 71.7739 95.9561 72.1441C96.3091 72.5142 96.5008 73.0092 96.4893 73.5205Z" fill="#263238"/>
<path d="M85.0684 73.5205C85.0503 73.8883 84.9247 74.2427 84.7072 74.5399C84.4896 74.8371 84.1896 75.0639 83.8443 75.1923C83.4991 75.3208 83.1237 75.3451 82.7647 75.2624C82.4057 75.1797 82.0789 74.9935 81.8247 74.727C81.5705 74.4604 81.4002 74.1252 81.3347 73.7628C81.2692 73.4004 81.3115 73.0268 81.4563 72.6882C81.6012 72.3496 81.8422 72.0609 82.1495 71.8578C82.4568 71.6548 82.817 71.5463 83.1854 71.5459C83.6968 71.5588 84.1822 71.7739 84.5352 72.1441C84.8882 72.5142 85.0799 73.0092 85.0684 73.5205Z" fill="#263238"/>
<path d="M90.9385 73.5205C90.9204 73.8883 90.7949 74.2427 90.5773 74.5399C90.3597 74.8371 90.0597 75.0639 89.7144 75.1923C89.3692 75.3208 88.9938 75.3451 88.6348 75.2624C88.2759 75.1797 87.949 74.9935 87.6949 74.727C87.4407 74.4604 87.2703 74.1252 87.2048 73.7628C87.1393 73.4004 87.1816 73.0268 87.3264 72.6882C87.4713 72.3496 87.7123 72.0609 88.0196 71.8578C88.327 71.6548 88.6871 71.5463 89.0555 71.5459C89.5669 71.5588 90.0524 71.7739 90.4054 72.1441C90.7583 72.5142 90.9501 73.0092 90.9385 73.5205Z" fill="#263238"/>
<path d="M315.746 222.389C315.746 222.487 259.749 222.561 190.676 222.561C121.602 222.561 65.5928 222.487 65.5928 222.389C65.5928 222.29 121.59 222.21 190.676 222.21C259.761 222.21 315.746 222.29 315.746 222.389Z" fill="#263238"/>
<path d="M167.071 104.837C170.79 102.593 174.792 100.855 178.971 99.67L181.433 87.8902L201.333 87.5396L204.201 99.2271C208.418 100.268 212.478 101.865 216.274 103.976L226.335 97.3878L240.654 111.21L234.427 121.501C236.673 125.221 238.412 129.224 239.596 133.404L251.374 135.864L251.725 155.758L240.033 158.624C238.989 162.828 237.39 166.875 235.276 170.656L241.873 180.714L228.046 195.028L217.763 188.797C214.042 191.042 210.038 192.78 205.856 193.964L203.395 205.743L183.488 206.088L180.627 194.4C176.42 193.37 172.371 191.784 168.584 189.682L158.523 196.277L144.204 182.455L150.438 172.176C148.189 168.456 146.449 164.453 145.262 160.273L133.485 157.812L133.134 137.919L144.826 135.052C145.866 130.836 147.463 126.778 149.576 122.984L142.986 112.926L156.813 98.6119L167.071 104.837ZM177.679 131.343C174.746 134.38 172.78 138.219 172.029 142.373C171.278 146.527 171.776 150.811 173.461 154.682C175.145 158.553 177.94 161.838 181.492 164.121C185.044 166.405 189.193 167.584 193.416 167.51C197.638 167.436 201.744 166.112 205.213 163.706C208.683 161.299 211.361 157.919 212.909 153.991C214.456 150.063 214.804 145.765 213.908 141.639C213.012 137.514 210.912 133.747 207.875 130.814C205.856 128.868 203.474 127.338 200.864 126.312C198.254 125.287 195.467 124.785 192.663 124.836C189.859 124.886 187.093 125.489 184.522 126.609C181.951 127.728 179.626 129.343 177.679 131.362V131.343Z" fill="#E0E0E0"/>
<path d="M246.58 112.446C246.853 110.975 247.318 109.546 247.965 108.196L245.503 104.874L249.958 99.6576L253.65 101.589C254.882 100.741 256.221 100.06 257.632 99.5653L258.247 95.4624L265.084 94.9272L266.314 98.8826C267.787 99.1545 269.217 99.622 270.567 100.273L273.889 97.8122L279.108 102.272L277.175 105.963C278.027 107.195 278.71 108.535 279.206 109.949L283.304 110.564L283.84 117.404L279.883 118.634C279.613 120.107 279.145 121.537 278.492 122.885L280.954 126.213L276.499 131.423L272.806 129.492C271.574 130.343 270.233 131.026 268.819 131.521L268.204 135.624L261.367 136.16L260.136 132.198C258.664 131.928 257.233 131.463 255.884 130.814L252.555 133.275L247.349 128.766L249.281 125.075C248.431 123.842 247.748 122.502 247.251 121.089L243.153 120.474L242.617 113.633L246.574 112.403L246.58 112.446ZM255.853 114.519C255.707 116.058 256.048 117.603 256.827 118.938C257.606 120.272 258.785 121.329 260.197 121.958C261.608 122.587 263.182 122.758 264.696 122.446C266.21 122.134 267.588 121.355 268.635 120.218C269.683 119.082 270.347 117.646 270.534 116.112C270.722 114.578 270.423 113.024 269.68 111.669C268.937 110.314 267.787 109.226 266.393 108.559C264.999 107.891 263.43 107.678 261.909 107.95C260.32 108.233 258.868 109.028 257.774 110.215C256.68 111.401 256.006 112.913 255.853 114.519Z" fill="#E0E0E0"/>
<path d="M96.7232 181.113C96.773 179.346 97.0607 177.593 97.5786 175.903L94.0895 172.501L98.3601 165.624L102.988 167.223C104.28 166.011 105.729 164.977 107.295 164.148L107.258 159.258L115.147 157.412L117.282 161.81C119.05 161.86 120.803 162.147 122.494 162.665L125.934 159.178L132.814 163.447L131.214 168.072C132.427 169.364 133.461 170.812 134.291 172.378L139.183 172.341L141.029 180.221L136.623 182.343C136.568 184.111 136.278 185.863 135.761 187.554L139.25 190.986L134.98 197.869L130.352 196.27C129.061 197.484 127.612 198.518 126.045 199.346L126.082 204.236L118.199 206.081L116.058 201.683C114.295 201.622 112.548 201.324 110.864 200.797L107.43 204.285L100.545 200.016L102.144 195.39C100.932 194.098 99.8969 192.65 99.0677 191.084L94.1449 191.121L92.2988 183.242L96.6986 181.101L96.7232 181.113ZM108.126 183.328C108.521 184.998 109.403 186.515 110.66 187.685C111.916 188.855 113.492 189.626 115.187 189.902C116.882 190.177 118.621 189.944 120.184 189.232C121.747 188.521 123.063 187.362 123.968 185.902C124.872 184.443 125.324 182.748 125.265 181.032C125.206 179.316 124.64 177.656 123.639 176.262C122.637 174.867 121.244 173.801 119.636 173.197C118.028 172.594 116.278 172.48 114.605 172.87C113.49 173.13 112.438 173.608 111.508 174.275C110.578 174.943 109.789 175.788 109.187 176.762C108.585 177.735 108.181 178.818 107.999 179.948C107.817 181.078 107.86 182.233 108.126 183.346V183.328Z" fill="#E0E0E0"/>
<path d="M110.882 115.405C111.083 114.294 111.435 113.216 111.928 112.2L110.082 109.69L113.442 105.76L116.211 107.217C117.14 106.577 118.15 106.062 119.214 105.686L119.669 102.61L124.826 102.204L125.749 105.187C126.859 105.394 127.937 105.746 128.955 106.233L131.466 104.388L135.392 107.746L133.939 110.515C134.581 111.442 135.094 112.452 135.465 113.516L138.542 113.965L138.948 119.12L135.97 120.018C135.766 121.128 135.417 122.205 134.93 123.223L136.776 125.727L133.416 129.657L130.647 128.2C129.72 128.843 128.71 129.358 127.644 129.731L127.195 132.807L122.038 133.207L121.109 130.223C119.998 130.022 118.92 129.67 117.903 129.178L115.399 131.023L111.467 127.664L112.919 124.896C112.277 123.969 111.764 122.959 111.393 121.895L108.316 121.439L107.916 116.284L110.9 115.362L110.882 115.405ZM117.866 117.908C117.953 118.999 118.362 120.039 119.04 120.898C119.718 121.757 120.635 122.396 121.676 122.734C122.717 123.072 123.835 123.094 124.888 122.797C125.942 122.5 126.884 121.898 127.595 121.067C128.307 120.236 128.756 119.212 128.886 118.126C129.016 117.04 128.821 115.939 128.326 114.964C127.831 113.988 127.058 113.181 126.104 112.644C125.15 112.107 124.059 111.865 122.968 111.948C122.241 112.003 121.532 112.201 120.881 112.531C120.231 112.861 119.653 113.315 119.179 113.869C118.705 114.423 118.345 115.065 118.12 115.758C117.894 116.451 117.808 117.182 117.866 117.908Z" fill="#EBEBEB"/>
<path d="M246.839 170.92C247.017 169.967 247.319 169.04 247.737 168.165L246.131 166.012L249.017 162.635L251.399 163.865C252.196 163.313 253.063 162.87 253.977 162.548L254.365 159.891L258.795 159.547L259.589 162.112C260.544 162.287 261.471 162.589 262.346 163.01L264.5 161.404L267.878 164.289L266.647 166.664C267.2 167.462 267.642 168.331 267.964 169.247L270.622 169.635L270.967 174.064L268.401 174.857C268.226 175.812 267.924 176.739 267.503 177.613L269.109 179.766L266.223 183.137L263.847 181.907C263.047 182.456 262.178 182.899 261.263 183.223L260.875 185.874L256.445 186.219L255.651 183.66C254.697 183.482 253.77 183.18 252.894 182.762L250.74 184.367L247.35 181.482L248.581 179.108C248.028 178.311 247.585 177.445 247.264 176.53L244.611 176.143L244.261 171.714L246.827 170.92H246.839ZM252.839 173.067C252.912 174.009 253.262 174.907 253.847 175.649C254.431 176.391 255.222 176.943 256.121 177.234C257.019 177.526 257.984 177.544 258.893 177.287C259.801 177.03 260.613 176.509 261.226 175.79C261.838 175.07 262.222 174.186 262.331 173.248C262.44 172.31 262.267 171.361 261.835 170.521C261.404 169.681 260.732 168.989 259.906 168.531C259.08 168.073 258.137 167.871 257.195 167.949C255.94 168.053 254.776 168.65 253.96 169.609C253.143 170.568 252.74 171.812 252.839 173.067Z" fill="#EBEBEB"/>
<path d="M192.417 177.595H161.815C160.017 177.59 158.251 177.114 156.694 176.213C155.137 175.313 153.844 174.019 152.944 172.463C152.044 170.906 151.568 169.14 151.564 167.342C151.561 165.544 152.03 163.777 152.924 162.216L168.234 135.71L183.537 109.204C184.44 107.645 185.737 106.35 187.298 105.45C188.859 104.55 190.63 104.076 192.432 104.076C194.235 104.076 196.005 104.55 197.566 105.45C199.128 106.35 200.425 107.645 201.327 109.204L216.637 135.71L231.947 162.216C232.841 163.777 233.31 165.545 233.306 167.344C233.302 169.142 232.826 170.908 231.925 172.465C231.025 174.022 229.731 175.315 228.173 176.216C226.615 177.116 224.848 177.591 223.049 177.595H192.417Z" fill="#C53F3F"/>
<path d="M225.375 165.256C225.375 165.256 225.454 165.409 225.608 165.729C225.871 166.37 225.971 167.066 225.9 167.755C225.83 168.444 225.59 169.104 225.202 169.678C224.898 170.132 224.507 170.52 224.051 170.822C223.522 171.159 222.917 171.358 222.292 171.401C217.073 171.456 209.541 171.444 200.225 171.468L167.501 171.505H162.824C161.99 171.496 161.179 171.229 160.503 170.74C159.828 170.25 159.32 169.564 159.052 168.774C158.767 167.985 158.713 167.132 158.898 166.314C158.947 166.111 159.015 165.908 159.083 165.698C159.15 165.489 159.261 165.311 159.353 165.126L159.969 164.05C160.756 162.604 161.556 161.153 162.356 159.682L172.276 141.481L182.257 123.291C183.861 120.351 185.44 117.466 186.995 114.636C187.389 113.935 187.752 113.228 188.17 112.533C188.586 111.822 189.18 111.233 189.893 110.822C190.592 110.422 191.377 110.194 192.182 110.158C192.986 110.122 193.788 110.278 194.521 110.613C195.247 110.942 195.881 111.445 196.367 112.077C196.787 112.715 197.167 113.379 197.505 114.064C198.225 115.381 198.939 116.679 199.634 117.958C201.037 120.517 202.393 123 203.702 125.407C206.329 130.211 208.772 134.69 211 138.774C215.455 146.949 219.055 153.568 221.547 158.151L224.402 163.422C224.722 164.038 224.968 164.48 225.135 164.8C225.301 165.12 225.381 165.274 225.381 165.274C225.381 165.274 225.282 165.12 225.11 164.813L224.347 163.453L221.436 158.206C218.926 153.636 215.283 147.041 210.803 138.885L203.474 125.53L199.388 118.093C198.687 116.814 197.979 115.516 197.253 114.2C196.914 113.535 196.538 112.89 196.127 112.268C195.673 111.677 195.081 111.207 194.404 110.896C193.714 110.58 192.959 110.433 192.202 110.467C191.444 110.501 190.705 110.716 190.047 111.093C189.38 111.483 188.825 112.038 188.435 112.705C188.029 113.375 187.66 114.095 187.272 114.796L182.534 123.451C179.321 129.332 175.986 135.415 172.577 141.653L162.615 159.842C161.809 161.313 161.015 162.77 160.221 164.21C159.788 164.888 159.447 165.62 159.206 166.387C159.03 167.154 159.079 167.955 159.347 168.694C159.59 169.427 160.057 170.065 160.682 170.518C161.307 170.972 162.058 171.218 162.83 171.222H167.507L200.231 171.253L222.292 171.284C222.896 171.249 223.482 171.062 223.996 170.743C224.444 170.452 224.831 170.075 225.135 169.635C225.608 168.939 225.861 168.116 225.861 167.273C225.853 166.573 225.687 165.883 225.375 165.256Z" fill="#263238"/>
<path d="M187.457 159.584C187.457 156.871 189.623 154.847 192.706 154.847C195.789 154.847 197.906 156.871 197.906 159.584C197.906 162.297 195.789 164.413 192.706 164.413C189.623 164.413 187.457 162.26 187.457 159.584ZM187.506 131.798H197.906L196.158 152.27H189.211L187.506 131.798Z" fill="white"/>
<path d="M193.882 106.141C193.252 105.928 192.599 105.792 191.937 105.735C190.328 105.7 188.757 106.227 187.494 107.224C186.261 108.252 185.268 109.536 184.584 110.988C184.024 112.096 183.759 112.834 183.71 112.803C183.727 112.621 183.77 112.443 183.839 112.274C183.993 111.803 184.174 111.34 184.381 110.89C185.031 109.366 186.038 108.02 187.316 106.965C188.633 105.921 190.291 105.403 191.968 105.514C192.471 105.551 192.963 105.672 193.426 105.87C193.728 106.012 193.894 106.123 193.882 106.141Z" fill="white"/>
<path d="M181.082 117.387C181.208 116.856 181.436 116.354 181.753 115.91C182.202 115.153 182.627 114.574 182.707 114.617C182.577 115.141 182.347 115.634 182.03 116.07C181.802 116.566 181.48 117.013 181.082 117.387Z" fill="white"/>
<g opacity="0.3">
<path d="M207.776 120.375L160.093 149.742L153.902 160.47L211.142 126.201L207.776 120.375Z" fill="white"/>
</g>
<g opacity="0.3">
<path d="M215.283 133.392L152.08 170.656C152.334 171.633 152.802 172.541 153.452 173.314L216.397 135.323L215.283 133.392Z" fill="white"/>
</g>
<path d="M371.478 202.889C369.076 200.242 365.961 198.343 362.508 197.418C359.054 196.493 355.407 196.581 352.002 197.673L346.113 191.214L345.295 190.297L298.694 139.186C300.004 136.152 300.482 132.824 300.079 129.545C299.677 126.265 298.407 123.152 296.402 120.525C294.397 117.898 291.729 115.852 288.671 114.598C285.613 113.343 282.276 112.925 279.003 113.387L276.726 114.291L284.646 119.6L284.221 128.243L277.815 134.056L269.17 133.631L263.521 127.406L261.189 128.323C260.518 133.533 264.013 140.102 267.822 144.316C270.221 146.959 273.329 148.857 276.777 149.783C280.225 150.709 283.866 150.624 287.267 149.538L334.649 201.505L336.102 203.123L340.594 208.044C339.189 211.318 338.754 214.926 339.342 218.44C339.93 221.954 341.516 225.225 343.91 227.863C347.701 232.046 352.735 234.839 357.971 234.697L360.31 233.787L354.655 227.556L355.079 218.944L361.485 213.131L370.1 213.549L373.411 220.691L375.749 219.774C376.47 216.825 376.458 213.744 375.713 210.801C374.969 207.858 373.515 205.141 371.478 202.889Z" fill="#E0E0E0"/>
<g opacity="0.3">
<path d="M371.478 202.889C369.076 200.242 365.961 198.343 362.508 197.418C359.054 196.493 355.407 196.581 352.002 197.673L346.113 191.214L345.295 190.297L298.694 139.186C300.004 136.152 300.482 132.824 300.079 129.545C299.677 126.265 298.407 123.152 296.402 120.525C294.397 117.898 291.729 115.852 288.671 114.598C285.613 113.343 282.276 112.925 279.003 113.387L276.726 114.291L284.646 119.6L284.221 128.243L277.815 134.056L269.17 133.631L263.521 127.406L261.189 128.323C260.518 133.533 264.013 140.102 267.822 144.316C270.221 146.959 273.329 148.857 276.777 149.783C280.225 150.709 283.866 150.624 287.267 149.538L334.649 201.505L336.102 203.123L340.594 208.044C339.189 211.318 338.754 214.926 339.342 218.44C339.93 221.954 341.516 225.225 343.91 227.863C347.701 232.046 352.735 234.839 357.971 234.697L360.31 233.787L354.655 227.556L355.079 218.944L361.485 213.131L370.1 213.549L373.411 220.691L375.749 219.774C376.47 216.825 376.458 213.744 375.713 210.801C374.969 207.858 373.515 205.141 371.478 202.889Z" fill="black"/>
</g>
<path d="M369.14 203.8C366.739 201.153 363.626 199.254 360.173 198.33C356.72 197.406 353.074 197.496 349.671 198.589L343.776 192.124L342.957 191.208L296.357 140.096C297.667 137.063 298.145 133.736 297.743 130.456C297.34 127.176 296.071 124.063 294.066 121.437C292.06 118.81 289.391 116.765 286.333 115.511C283.275 114.258 279.938 113.841 276.665 114.304L282.314 120.529L281.896 129.141L275.478 134.979L266.863 134.56L261.214 128.335C260.433 131.544 260.521 134.904 261.469 138.068C262.417 141.232 264.191 144.086 266.609 146.337C269.026 148.589 272 150.156 275.224 150.877C278.449 151.599 281.807 151.449 284.954 150.443L332.336 202.409L333.795 204.027L338.287 208.948C336.982 211.981 336.509 215.305 336.914 218.581C337.32 221.857 338.59 224.966 340.594 227.589C342.599 230.212 345.265 232.254 348.32 233.507C351.375 234.759 354.708 235.177 357.978 234.716L352.323 228.479L352.741 219.867L359.153 214.054L367.768 214.478L373.417 220.703C374.143 217.751 374.132 214.666 373.387 211.719C372.641 208.771 371.183 206.052 369.14 203.8Z" fill="#E0E0E0"/>
<path d="M369.14 203.8C369.14 203.8 369.411 204.095 369.921 204.692C370.649 205.6 371.293 206.572 371.847 207.595C373.986 211.614 374.577 216.278 373.509 220.703V220.826L373.423 220.734L367.768 214.515L367.817 214.546L359.202 214.134H359.263L352.864 219.953V219.885C352.741 222.567 352.599 225.489 352.451 228.528V228.448L358.057 234.63L358.205 234.79L357.99 234.821C354.869 235.274 351.685 234.93 348.734 233.821C345.782 232.712 343.16 230.874 341.11 228.479C338.881 225.89 337.411 222.735 336.865 219.362C336.284 215.827 336.724 212.2 338.132 208.905V209.053L284.787 150.56L284.953 150.603C281.582 151.668 277.98 151.77 274.554 150.898C269.781 149.664 265.686 146.603 263.153 142.375C260.62 138.147 259.852 133.093 261.016 128.304L261.09 128.009L261.293 128.231L266.942 134.456L266.831 134.406L275.477 134.825L275.36 134.868L281.809 129.049L281.754 129.159C281.895 126.244 282.037 123.371 282.178 120.517L282.215 120.627L276.566 114.402L276.375 114.187L276.658 114.15C280.061 113.669 283.531 114.132 286.689 115.488C289.847 116.844 292.571 119.041 294.565 121.839C296.473 124.509 297.642 127.634 297.956 130.9C298.246 134.048 297.749 137.219 296.51 140.127V139.98L349.768 198.516H349.695C352.229 197.706 354.908 197.449 357.551 197.759C360.194 198.07 362.739 198.943 365.017 200.318C366.174 201.024 367.255 201.849 368.241 202.778C368.857 203.437 369.189 203.775 369.189 203.775L368.217 202.803C367.222 201.878 366.137 201.054 364.98 200.343C362.708 198.988 360.174 198.133 357.546 197.834C354.918 197.535 352.256 197.799 349.738 198.608H349.695V198.571L296.337 140.133L296.276 140.066L296.313 139.986C297.533 137.111 298.019 133.978 297.728 130.869C297.42 127.653 296.265 124.575 294.381 121.95C292.418 119.197 289.736 117.036 286.628 115.703C283.52 114.37 280.105 113.915 276.757 114.39L276.849 114.138L282.424 120.424L282.467 120.468V120.535C282.332 123.381 282.192 126.252 282.049 129.147V129.215L282 129.258L275.594 135.071L275.545 135.114H275.477L266.862 134.689H266.794L266.751 134.64L261.096 128.415L261.373 128.347C260.6 131.528 260.688 134.856 261.626 137.992C262.564 141.127 264.32 143.957 266.713 146.19C269.106 148.424 272.05 149.981 275.243 150.703C278.437 151.424 281.765 151.283 284.886 150.295H284.978L285.052 150.369C304.423 171.64 322.588 191.552 338.36 208.887L338.421 208.954L338.384 209.041C337 212.281 336.563 215.847 337.123 219.326C337.663 222.565 339.052 225.603 341.149 228.13C343.246 230.658 345.976 232.584 349.061 233.713C351.907 234.743 354.962 235.059 357.959 234.636L357.885 234.827L352.242 228.602L352.211 228.565V228.479C352.359 225.446 352.501 222.524 352.636 219.867V219.824V219.793L359.054 213.992H359.091L367.706 214.423C369.774 216.711 371.675 218.809 373.343 220.66H373.232C374.308 216.263 373.742 211.623 371.638 207.613C371.092 206.59 370.46 205.614 369.749 204.698C369.392 204.113 369.14 203.8 369.14 203.8Z" fill="#263238"/>
<path d="M294.233 143.08C294.189 143.243 294.121 143.399 294.03 143.541C293.814 143.941 293.574 144.328 293.31 144.698C291.565 147.179 289.105 149.069 286.258 150.117C285.832 150.277 285.396 150.409 284.953 150.511C284.795 150.564 284.628 150.591 284.461 150.591C284.461 150.535 285.132 150.351 286.178 149.908C288.923 148.766 291.32 146.925 293.131 144.568C293.827 143.664 294.184 143.055 294.233 143.08Z" fill="#263238"/>
<path d="M346.274 165.28L328.576 157.037L312.756 155.063L318.565 159.984C318.565 159.984 298.11 167.113 297.753 168.719C297.396 170.324 299.366 174.642 302.972 173.843C302.972 173.843 300.947 176.303 301.79 179.016C302.633 181.729 304.498 182.239 307.944 181.606C307.944 181.606 305.605 185.106 307.439 186.89C309.273 188.674 312.128 188.225 312.128 188.225C312.128 188.225 312.165 192.487 314.417 192.857C316.669 193.226 322.946 192.789 325.29 192.069L337.197 188.378L344.914 186.65L346.274 165.28Z" fill="#FFBF9D"/>
<path d="M313.697 170.693C313.764 170.927 311.407 171.812 308.441 172.68C305.475 173.547 303.002 174.052 302.934 173.818C302.866 173.584 305.223 172.692 308.189 171.831C311.155 170.97 313.629 170.459 313.697 170.693Z" fill="#FF9A6C"/>
<path d="M316.706 179.102C316.773 179.336 314.909 180.105 312.534 180.825C310.158 181.545 308.171 181.926 308.097 181.693C308.023 181.459 309.9 180.69 312.275 179.976C314.65 179.262 316.638 178.874 316.706 179.102Z" fill="#FF9A6C"/>
<path d="M319.407 186.096C319.45 186.36 317.752 186.711 315.758 187.216C313.764 187.72 312.208 188.446 312.066 188.194C311.925 187.942 313.389 186.927 315.512 186.348C317.635 185.77 319.376 185.88 319.407 186.096Z" fill="#FF9A6C"/>
<path d="M321.641 159.276C321.709 159.516 319.389 160.359 316.515 161.349C313.641 162.34 311.297 163.096 311.198 162.869C311.1 162.641 313.328 161.509 316.232 160.513C319.137 159.516 321.579 159.043 321.641 159.276Z" fill="#FF9A6C"/>
<path d="M342.939 163.73L381.269 177.607L379.029 203.904L336.828 186.896L342.939 163.73Z" fill="#FFBF9D"/>
<path d="M392.117 117.712C392.117 117.712 397.114 122.873 400.024 132.155C402.935 141.437 416.639 180.787 416.307 193.305C415.944 206.254 407.224 215.493 388.062 210.375C376.629 207.3 363.005 202.379 363.005 202.379L372.691 170.552L380.266 172.502L368.032 149.545L392.117 117.712Z" fill="#C53F3F"/>
<path d="M383.342 132.751C383.416 132.807 378.112 140.355 371.503 149.612C364.894 158.87 359.485 166.35 359.411 166.288C359.337 166.227 364.641 158.685 371.25 149.428C377.859 140.17 383.274 132.702 383.342 132.751Z" fill="#263238"/>
<path d="M398.012 176.807C398.012 176.807 397.68 176.648 397.083 176.371C396.233 175.992 395.354 175.681 394.455 175.442C393.317 175.128 391.938 174.827 390.406 174.501L385.434 173.406C381.908 172.618 378.714 171.886 376.413 171.339L373.687 170.675C373.349 170.61 373.017 170.515 372.696 170.392C373.039 170.42 373.378 170.475 373.712 170.558L376.462 171.117C378.782 171.61 382 172.305 385.508 173.092L390.474 174.218C392 174.562 393.378 174.882 394.517 175.227C395.421 175.489 396.298 175.835 397.138 176.26C397.365 176.376 397.585 176.505 397.797 176.647C397.875 176.691 397.947 176.745 398.012 176.807Z" fill="#263238"/>
<g opacity="0.3">
<path d="M407.809 178.21C407.687 177.455 407.383 176.74 406.925 176.127C406.466 175.515 405.866 175.022 405.176 174.692C403.79 174.036 402.297 173.636 400.77 173.51C393.884 172.563 386.918 172.28 379.971 172.04L380.586 172.317C389.169 173.903 397.57 176.351 405.662 179.625C406.104 179.87 406.626 179.932 407.114 179.797C407.378 179.635 407.586 179.396 407.71 179.112C407.834 178.829 407.869 178.514 407.809 178.21Z" fill="black"/>
</g>
<g opacity="0.3">
<path d="M249.897 56.1921C243.436 55.091 235.707 56.9672 229.246 55.8661C228.286 55.7062 227.227 55.5524 226.378 56.0445C225.357 56.6289 225.006 57.9329 224.957 59.1202C224.931 60.7491 225.246 62.3654 225.882 63.8654C226.517 65.3654 227.46 66.716 228.649 67.8304C231.068 70.0417 234.09 71.4847 237.331 71.9764C239.91 72.4132 242.685 72.3271 244.98 71.0845C249.017 68.8946 250.955 60.6272 249.897 56.1921Z" fill="black"/>
</g>
<path d="M224.822 68.009C224.822 68.009 220.902 63.4139 220.336 61.2979C219.96 59.8954 220.145 55.9647 220.336 53.4734C220.379 52.6339 220.667 51.8254 221.165 51.1477C221.662 50.47 222.348 49.9527 223.136 49.6595C223.367 49.545 223.624 49.4954 223.881 49.516C224.138 49.5366 224.384 49.6266 224.594 49.7764C225.126 49.0548 225.724 48.3835 226.379 47.7711C227.917 46.1963 228.649 45.1322 232.034 46.1102C232.034 46.1102 234.526 43.4836 235.96 43.6805C236.922 43.8228 237.874 44.0282 238.809 44.2956C238.809 44.2956 244.267 44.0618 245.387 45.7965C246.023 46.5796 246.881 47.1521 247.848 47.4389C248.702 47.7401 249.487 48.2094 250.156 48.819C250.825 49.4287 251.365 50.1663 251.743 50.9882C252.38 52.4979 252.749 54.107 252.833 55.7432L247.294 55.9647C247.294 55.9647 247.688 68.7041 246.291 69.7313C244.895 70.7586 244.365 70.3895 244.365 70.3895C244.365 70.3895 243.301 73.3791 239.147 71.1707C239.147 71.1707 235.701 72.2103 234.224 70.7894C232.748 69.3684 227.345 55.7186 227.345 55.7186L227.499 62.4851C227.499 62.4851 230.348 66.871 228.951 67.8982C227.554 68.9255 224.822 68.009 224.822 68.009Z" fill="#FFBF9D"/>
<path d="M231.738 50.7422C231.869 50.9976 231.974 51.2655 232.052 51.5419L232.803 53.7563C233.418 55.6017 234.261 58.2345 235.16 61.1072C236.058 63.9799 236.809 66.6434 237.658 68.3904C237.985 69.0941 238.363 69.7726 238.79 70.4203C239.092 70.8816 239.282 71.1154 239.264 71.1338C239.246 71.1523 239.196 71.0908 239.098 70.9801C238.954 70.8258 238.818 70.6635 238.692 70.4941C238.219 69.8662 237.807 69.1947 237.461 68.4888C236.544 66.711 235.775 64.0721 234.864 61.2056C233.954 58.3391 233.16 55.7186 232.594 53.824C232.335 52.9198 232.114 52.1693 231.941 51.5788C231.848 51.3067 231.78 51.0267 231.738 50.7422Z" fill="#FF9A6C"/>
<path d="M238.55 49.1675C238.673 49.4314 238.768 49.7077 238.833 49.9918L239.491 52.2739C240.027 54.1993 240.722 56.8689 241.534 59.8216C242.347 62.7742 243.005 65.4562 243.485 67.4C243.713 68.3227 243.897 69.0978 244.045 69.7006C244.128 69.9814 244.181 70.27 244.205 70.5618C244.088 70.2951 243.994 70.0195 243.922 69.7375C243.75 69.1224 243.534 68.3719 243.27 67.4554C242.728 65.53 242.002 62.8603 241.227 59.9077C240.451 56.9551 239.756 54.2731 239.27 52.3293C239.048 51.4004 238.857 50.6315 238.716 50.0225C238.633 49.7434 238.578 49.4571 238.55 49.1675Z" fill="#FF9A6C"/>
</svg>
