<svg width="176" height="28" viewBox="0 0 176 28" fill="none" xmlns="http://www.w3.org/2000/svg">
<path d="M5.56173 22.0988C9.05398 22.0988 11.3175 19.7936 11.3175 16.5664V15.0604C11.3175 13.2777 10.3797 11.6487 8.73063 10.8189C10.0241 10.0198 10.8001 8.54446 10.8001 6.7618V5.47092C10.8001 2.24369 8.69829 0 5.56173 0C2.45751 0 0.452704 2.09001 0.291025 5.37871C0.291025 5.65533 0.452692 5.80901 0.711377 5.80901H2.78086C3.03954 5.80901 3.20123 5.65533 3.23357 5.37871C3.33058 3.53458 4.10663 2.58178 5.56173 2.58178C7.01684 2.58178 7.88989 3.62679 7.88989 5.2865V6.91548C7.88989 8.54446 7.01684 9.68168 5.5294 9.68168H3.42757C3.16889 9.68168 3.00721 9.83535 3.00721 10.112V11.7717C3.00721 12.0483 3.16889 12.202 3.42757 12.202H5.6264C7.34018 12.202 8.40727 13.4314 8.40727 15.0296V16.6586C8.40727 18.3183 7.30785 19.517 5.59406 19.517C4.10662 19.517 3.07189 18.472 2.94254 16.8123C2.94254 16.5357 2.78086 16.4127 2.52218 16.4127H0.452697C0.161676 16.4127 0 16.5664 0 16.8123C0.194014 19.9781 2.3605 22.0988 5.56173 22.0988Z" fill="#5FC2D1"/>
<path d="M21.2943 22.1602C24.3985 22.1602 26.3386 20.1317 26.3386 17.304V11.1262C26.3386 8.23708 24.3662 6.14706 21.2943 6.14706C18.4164 6.14706 16.5086 8.05266 16.3146 10.7267C16.3146 10.9725 16.4763 11.1569 16.735 11.1569H18.6104C18.9014 11.1569 19.0308 11.0647 19.0631 10.7881C19.1601 9.52797 19.9038 8.66737 21.2619 8.66737C22.717 8.66737 23.5901 9.62017 23.5901 11.0033V12.6937H21.1649C18.1254 12.6937 16.0559 14.6608 16.0559 17.2118C16.0559 20.101 18.1577 22.1602 21.2943 22.1602ZM21.2619 19.6399C19.7422 19.6399 18.8368 18.6871 18.8368 17.2118C18.8368 16.0132 19.7422 15.0604 21.2619 15.0604H23.5901V17.304C23.5901 18.7179 22.7494 19.6399 21.2619 19.6399Z" fill="#6CBFD0"/>
<path d="M36.9448 22.1911C40.0491 22.1911 42.0862 20.1933 42.0862 17.4271V11.6795C42.0862 8.7904 40.2107 6.7926 37.6239 6.7926C36.2981 6.7926 35.328 7.19216 34.5843 7.89907V6.97701C34.5843 4.73332 35.3281 3.90346 36.9125 3.35022C37.8179 3.04287 39.3377 2.73551 40.5341 2.52036C40.7928 2.48963 40.9221 2.33595 40.9221 2.09007V0.430352C40.9221 0.153733 40.7281 0.0307901 40.4371 0.0615256C39.4347 0.276674 37.9472 0.584028 36.3951 1.01432C33.5819 1.78271 31.8035 3.56537 31.8035 7.00774V17.4271C31.8035 20.1933 33.8729 22.1911 36.9448 22.1911ZM36.9448 19.6708C35.4574 19.6708 34.5843 18.6872 34.5843 17.2119V11.7717C34.5843 10.2964 35.4574 9.28217 36.9448 9.28217C38.4323 9.28217 39.3377 10.2964 39.3377 11.7717V17.2119C39.3377 18.6872 38.4323 19.6708 36.9448 19.6708Z" fill="#79BDD0"/>
<path d="M52.4863 22.191C55.6229 22.191 57.66 20.101 57.66 17.1811V11.1569C57.66 8.23708 55.6229 6.14706 52.4863 6.14706C49.3821 6.14706 47.3126 8.23708 47.3126 11.1569V17.1811C47.3126 20.101 49.3821 22.191 52.4863 22.191ZM52.4863 19.7014C50.9989 19.7014 50.1258 18.7179 50.1258 17.2733V11.0647C50.1258 9.62017 50.9989 8.63664 52.4863 8.63664C53.9738 8.63664 54.8792 9.62017 54.8792 11.0647V17.2733C54.8792 18.7179 53.9738 19.7014 52.4863 19.7014Z" fill="#85BACF"/>
<path d="M65.587 21.8529H67.4624C67.7535 21.8529 67.9151 21.6992 67.9151 21.4226V8.97474H71.1164C71.3751 8.97474 71.5367 8.82106 71.5367 8.54445V6.88473C71.5367 6.63885 71.3751 6.48517 71.1164 6.48517H61.9654C61.6744 6.48517 61.5127 6.63885 61.5127 6.88473V8.54445C61.5127 8.82106 61.6744 8.97474 61.9654 8.97474H65.1343V21.4226C65.1343 21.6992 65.296 21.8529 65.587 21.8529Z" fill="#92B8CF"/>
<path d="M80.7656 22.1602C83.8698 22.1602 85.81 20.1317 85.81 17.304V11.1262C85.81 8.23708 83.8375 6.14706 80.7656 6.14706C77.8877 6.14706 75.9799 8.05266 75.7859 10.7267C75.7859 10.9725 75.9476 11.1569 76.2063 11.1569H78.0817C78.3728 11.1569 78.5021 11.0647 78.5344 10.7881C78.6315 9.52797 79.3752 8.66737 80.7333 8.66737C82.1884 8.66737 83.0614 9.62017 83.0614 11.0033V12.6937H80.6363C77.5967 12.6937 75.5272 14.6608 75.5272 17.2118C75.5272 20.101 77.629 22.1602 80.7656 22.1602ZM80.7333 19.6399C79.2135 19.6399 78.3081 18.6871 78.3081 17.2118C78.3081 16.0132 79.2135 15.0604 80.7333 15.0604H83.0614V17.304C83.0614 18.7179 82.2207 19.6399 80.7333 19.6399Z" fill="#9FB5CE"/>
<path d="M103.522 6.14706C100.418 6.14706 98.3484 8.23708 98.3484 11.1569V27.6004C98.3484 27.8463 98.5101 28 98.8011 28H100.709C100.968 28 101.129 27.8463 101.129 27.6004V21.146C101.873 21.7914 102.811 22.191 103.975 22.191C106.594 22.191 108.663 20.101 108.663 17.1811V11.1569C108.663 8.23708 106.594 6.14706 103.522 6.14706ZM105.883 17.2733C105.883 18.7179 105.01 19.6707 103.522 19.6707C102.035 19.6707 101.129 18.7179 101.129 17.2733V11.0647C101.129 9.62017 102.035 8.66737 103.522 8.66737C105.01 8.66737 105.883 9.62017 105.883 11.0647V17.2733Z" fill="#ACB2CD"/>
<path d="M118.785 6.14706C115.745 6.14706 113.449 8.11414 113.449 11.1877C113.449 13.2777 114.484 14.8759 116.101 15.6443L112.964 21.3611C112.803 21.6377 112.997 21.8529 113.32 21.8529H115.325C115.583 21.8529 115.777 21.7607 115.874 21.4841L118.591 16.259H120.983V21.4226C120.983 21.6992 121.145 21.8529 121.404 21.8529H123.279C123.538 21.8529 123.7 21.6992 123.7 21.4226V10.9418C123.7 8.05266 121.663 6.14706 118.785 6.14706ZM120.983 13.8002H118.72C117.2 13.8002 116.23 12.8781 116.23 11.2184C116.23 9.5587 117.265 8.66737 118.785 8.66737C120.11 8.66737 120.983 9.49723 120.983 10.9725V13.8002Z" fill="#B9B0CD"/>
<path d="M128.384 25.2646H130.13C130.421 25.2646 130.583 25.1109 130.583 24.865V21.8529H139.055V24.865C139.055 25.1109 139.249 25.2646 139.507 25.2646H141.254C141.545 25.2646 141.706 25.1109 141.706 24.865V20.9616C141.706 19.9781 141.157 19.4556 140.186 19.4556L139.96 19.3941V7.92977C139.96 6.94624 139.313 6.42374 138.279 6.42374H135.336C132.491 6.42374 130.389 8.54448 130.389 11.4336V16.6279C130.389 18.1032 129.807 18.9945 128.74 19.3634C128.255 19.5478 127.931 19.8551 127.931 20.4391V24.865C127.931 25.1109 128.093 25.2646 128.384 25.2646ZM131.909 19.4556C132.652 18.6872 133.105 17.7037 133.105 16.2284V11.618C133.105 9.89685 134.075 8.8211 135.53 8.8211H137.212V19.4556H131.909Z" fill="#C5ADCC"/>
<path d="M150.883 22.191C154.019 22.191 156.056 20.101 156.056 17.1811V11.1569C156.056 8.23708 154.019 6.14706 150.883 6.14706C147.778 6.14706 145.709 8.23708 145.709 11.1569V17.1811C145.709 20.101 147.778 22.191 150.883 22.191ZM150.883 19.7014C149.395 19.7014 148.522 18.7179 148.522 17.2733V11.0647C148.522 9.62017 149.395 8.63664 150.883 8.63664C152.37 8.63664 153.276 9.62017 153.276 11.0647V17.2733C153.276 18.7179 152.37 19.7014 150.883 19.7014Z" fill="#D2ABCC"/>
<path d="M162.257 21.853H164.068C164.359 21.853 164.521 21.6993 164.521 21.4227V14.4765C164.521 12.8475 164.489 11.2185 164.424 10.0813H164.489C164.877 11.0956 165.265 12.1406 165.685 13.1241L167.172 16.4128C167.431 17.0582 167.948 17.3656 168.692 17.3656H169.145C169.889 17.3656 170.406 17.0582 170.665 16.4128L172.12 13.1241C172.54 12.1406 172.96 11.0956 173.349 10.0813H173.413C173.348 11.2185 173.316 12.8475 173.316 14.4765V21.4227C173.284 21.6993 173.478 21.853 173.737 21.853H175.58C175.838 21.853 176 21.6993 176 21.4227V7.68392C176 6.88479 175.547 6.4545 174.707 6.4545H173.575C172.831 6.4545 172.346 6.70038 172.055 7.37656L170.18 11.3414C169.695 12.3557 169.242 13.5544 168.951 14.3843H168.886C168.595 13.5544 168.11 12.325 167.657 11.3722L165.782 7.37656C165.491 6.70038 165.006 6.4545 164.262 6.4545H163.13C162.29 6.4545 161.805 6.88479 161.805 7.68392V21.4227C161.805 21.6993 161.966 21.853 162.257 21.853Z" fill="#DFA8CB"/>
</svg>
